PathFileType	4	(X/Y/Z)	Patient4_TMGait_0pt4_01_right_25.trc.trc
DataRate	CameraRate	NumFrames	NumMarkers	Units	OrigDataRate	OrigDataStartFrame	OrigNumFrames
76.502732240437	76.502732240437	4	33	mm	76.502732240437	71	       141
Frame#	Time	Sacral			L.Shoulder			Chest			R.Shoulder			Neck			R.ASIS			L.ASIS			R.Thigh.Superior			R.Thigh.Lateral			R.Thigh.Inferior			R.Patella			L.Thigh.Superior			L.Thigh.Lateral			L.Thigh.Inferior			L.Patella			L.Shank.Superior			L.Shank.Lateral			L.Shank.Inferior			R.Shank.Superior			R.Shank.Lateral			R.Shank.Inferior			R.Heel			R.Midfoot.Superior			R.Midfoot.Lateral			R.Toe			L.Heel			L.Midfoot.Lateral			L.Midfoot.Superior			L.Toe			L.Elbow			L.Wrist			R.Elbow			R.Wrist			
		X1	Y1	Z1	X2	Y2	Z2	X3	Y3	Z3	X4	Y4	Z4	X5	Y5	Z5	X6	Y6	Z6	X7	Y7	Z7	X8	Y8	Z8	X9	Y9	Z9	X10	Y10	Z10	X11	Y11	Z11	X12	Y12	Z12	X13	Y13	Z13	X14	Y14	Z14	X15	Y15	Z15	X16	Y16	Z16	X17	Y17	Z17	X18	Y18	Z18	X19	Y19	Z19	X20	Y20	Z20	X21	Y21	Z21	X22	Y22	Z22	X23	Y23	Z23	X24	Y24	Z24	X25	Y25	Z25	X26	Y26	Z26	X27	Y27	Z27	X28	Y28	Z28	X29	Y29	Z29	X30	Y30	Z30	X31	Y31	Z31	X32	Y32	Z32	X33	Y33	Z33	

71	33.075000000000	869.138016560009	1002.595278013354	525.941362589567	1003.570933073284	1430.003493102793	316.922521993217	1138.727300375588	1362.849414946694	452.250581184771	1094.224595449553	1438.914514910780	638.578863245581	1024.851914181654	1492.155047356986	471.352119138796	1111.839995490331	936.353502352757	606.292254745817	1057.750032284349	960.473231820712	335.966288150812	1106.622439737472	724.500813077347	578.830432038434	1008.427658084395	629.968552204973	650.512195883574	1061.350165859624	565.338896224613	565.501141475847	1043.177110341658	482.749517942751	571.673202293392	1135.865724133982	773.424613232345	362.661246882263	1082.123935723302	643.250329271344	289.001954975569	1187.394448669568	584.271057247654	345.262619893783	1212.551313435831	518.602043057740	341.789045545189	1193.881782481075	445.646221242200	333.032638081978	1121.212539637048	318.668308154362	283.857615986110	1205.531439201770	215.667817349186	336.233480517850	1007.233013758607	397.767872032787	581.352663119817	931.280627075563	301.236001329269	649.863768960583	957.672224921276	203.301266071820	581.989197369580	809.298517624995	43.689051893787	558.072828573583	982.195467497673	96.130468973108	588.179015920598	894.748108643372	36.772086938271	630.174660926688	1102.755439497383	42.085956009333	611.818017979202	1113.851879911887	45.403765619591	378.439640602457	1185.811371124802	42.555798365223	297.004149819308	1263.951167955095	112.820060477815	315.520010168023	1393.463222507525	71.445620245145	286.941324439366	870.662961670644	1097.212587157417	239.394396118290	849.638116500482	838.248943792264	234.224878232646	1242.206791337091	1132.387470092027	750.067159455117	1464.266512978768	1186.607564033988	645.297304156540	
72	33.088071428571	870.374491933467	1001.399026200782	523.378070783934	1003.942958907113	1428.842022090302	314.192749776850	1138.977339694671	1362.186312960038	449.857889890970	1093.767858605393	1438.165391297332	636.038544828153	1024.782840142093	1491.154788862669	468.633212589706	1112.986169978163	935.497426683863	604.464129398431	1059.373174971837	958.968611455176	334.041483143311	1106.993459412425	723.394772337203	577.407745290089	1007.991492439108	629.373395415430	649.014622061776	1060.643119101509	564.244264456636	564.207487142796	1041.774501521617	481.506498692422	570.281999747559	1136.846536714553	770.844696400861	360.446551947898	1080.452655735902	640.492198007378	288.772277611751	1186.111223475943	581.500136317885	344.290391180686	1209.943015927427	515.274960273812	341.727034738287	1190.893094529326	442.246474662623	333.203070844991	1116.631739421548	315.571846657366	285.761228142006	1200.643243598041	212.319705844885	337.957294504511	1005.048771802291	396.805935919605	580.231029047663	928.258729753589	301.182185515443	649.095365990351	953.583372241619	202.811050009997	581.519213840680	804.043401671979	43.716398428623	558.183122385858	976.945096435121	96.130997998075	588.176225132753	889.503354144825	36.730668774679	630.224786563880	1097.515586828642	41.913813722294	611.896764351069	1107.728731408458	43.630889551855	381.805296065336	1178.553646739388	40.520339963842	299.277870183730	1257.934451270808	109.230269664953	317.489669508265	1386.662720059029	66.183535678109	286.784329807638	871.270561958828	1096.177060015990	236.275851610648	850.663584750715	837.153226588173	230.993296141992	1242.536785755400	1131.499984062235	746.408306113923	1464.323943735228	1185.736703001025	641.019995822189	
73	33.101142857143	871.611293295386	1000.201707750418	520.599906616526	1004.410810660332	1427.650829600611	311.237562137149	1139.260285128286	1361.571228399479	447.339799757181	1093.225007675364	1437.465727721944	633.362226323168	1024.722302206777	1490.190129146596	465.696457890845	1114.180419318097	934.637714904596	602.506318610027	1061.135122558924	957.567251993613	332.007767067780	1107.624845776710	722.285666647080	575.834794060335	1007.873455660426	628.705201439791	647.307539340320	1060.329957858689	563.113749833262	562.703012267638	1040.817573535338	480.104971698085	568.676099378389	1138.041185977719	768.416210296109	358.324570629287	1079.259568066424	638.072651701880	288.438964658925	1185.167838928774	579.020927683100	343.499076998522	1207.581374180580	512.141931117971	341.840998280121	1188.134906866080	439.010793015366	333.403443018354	1112.299717830285	312.777009776177	287.290290000099	1195.623577822575	209.127617842967	339.590719200283	1003.224111220984	395.726228347678	578.922088028809	925.487843047872	301.115366269839	648.180000599114	949.621185974170	202.280114228974	580.968641226742	798.786312185877	43.815912394192	558.311108124178	971.720709229512	96.145072813581	588.153643794536	884.276593818003	36.712986325418	630.277527602962	1092.299846924886	41.723832988083	611.979988591326	1101.080188264205	41.996741549696	384.608624497335	1170.989862838235	38.804561474166	301.168632460263	1251.514089488891	105.954895567906	319.445458490101	1379.566447448847	61.342191904773	286.882876403389	872.477386579247	1094.859317879631	232.858395077303	852.782899097610	835.732160887378	227.365190505875	1242.199423931257	1130.361704145086	742.905565804732	1464.041429655861	1183.574160714927	636.972387645020	
74	33.114214285714	872.795575899409	999.085339845395	517.651611228016	1004.971495678746	1426.498050773776	308.091086079106	1139.585737878588	1361.038225394088	444.700620571810	1092.669532447799	1436.875587527372	630.555042998179	1024.705979826843	1489.324649193674	462.563742461088	1115.362335746767	933.829688354988	600.405994481827	1062.944335789353	956.362881770859	329.851226805913	1108.488342531093	721.232864383162	574.080071595736	1008.103570574188	627.988631709616	645.373062312972	1060.468473221587	561.991218909202	560.970266443390	1040.410066400111	478.549212664395	566.875186696319	1139.427424072962	766.310393021776	356.314354757298	1078.622912188103	636.137786264484	287.934558823602	1184.611161434892	576.964856462183	342.827202855740	1205.562293203305	509.385006455983	342.045600587737	1185.746610793777	436.123631701900	333.559031049878	1108.485923591732	310.428204191176	288.273852421444	1190.757808997974	206.283767187138	341.017335545912	1001.825308012685	394.550823945815	577.436416439538	923.008445718004	301.080640292313	647.125556198646	945.823177124129	201.748282570172	580.353245856107	793.537698719887	44.066825872619	558.461047062596	966.557373352272	96.178874055090	588.117723082126	879.079762712623	36.751388083041	630.333466183481	1087.120148918064	41.507488967714	612.065363245009	1094.293694300840	40.601186900307	386.748548215446	1163.536085619004	37.475812405134	302.607552416411	1245.038219690925	103.180259265541	321.247125179276	1372.553236053999	57.202835624106	287.185413677187	874.307461642411	1093.318467088473	229.176460028954	855.986157131931	834.053956103961	223.367996231314	1241.188050866549	1129.012224587113	739.590650700606	1463.390111564737	1180.107676672385	633.178862089489	
